<svg xmlns="http://www.w3.org/2000/svg" width="600" height="450" viewBox="0 0 600 450">
  <!-- Curio Constellation Brain Map — editable SVG -->
  <!-- Brain outline: the human-brain side-profile silhouette -->
  <path d="M105.0,144.0 Q96.0,189.0 147.0,69.8 Q114.0,99.0 228.0,29.2 Q180.0,40.5 327.0,20.2 Q276.0,18.0 426.0,33.8 Q378.0,22.5 507.0,65.2 Q474.0,45.0 558.0,117.0 Q540.0,85.5 585.0,186.8 Q576.0,148.5 567.0,249.8 Q594.0,225.0 510.0,283.5 Q540.0,274.5 444.0,306.0 Q480.0,292.5 366.0,328.5 Q408.0,319.5 282.0,335.2 Q324.0,337.5 204.0,319.5 Q240.0,333.0 144.0,279.0 Q168.0,306.0 108.0,220.5 Q120.0,252.0 105.0,144.0 Z" fill="none" stroke="#5F7E9A" stroke-width="1.2" opacity="0.45"/>
  <!-- Neural web links (nearest-neighbor) -->
  <g id="links" stroke="#5F7E9A" stroke-width="1.2" fill="none" opacity="0.50">
  <path d="M181.2,103.8 Q169.9,94.7 155.8,91.6"/>
  <path d="M181.2,103.8 Q205.5,113.7 231.7,111.4"/>
  <path d="M258.6,208.7 Q269.0,225.6 285.9,236.1"/>
  <path d="M429.0,227.5 Q413.2,221.3 396.2,223.0"/>
  <path d="M429.0,227.5 Q431.4,252.4 444.9,273.6"/>
  <path d="M429.0,227.5 Q442.0,226.1 452.8,218.9"/>
  <path d="M345.4,61.2 Q307.9,99.2 291.7,150.1"/>
  <path d="M535.2,194.5 Q505.5,182.0 473.4,184.3"/>
  <path d="M535.2,194.5 Q556.4,161.8 560.5,123.1"/>
  <path d="M115.3,222.6 Q119.5,219.8 121.9,215.5"/>
  <path d="M115.3,222.6 Q139.6,250.2 173.9,263.8"/>
  <path d="M121.9,215.5 Q147.0,193.2 159.2,162.0"/>
  <path d="M133.8,83.8 Q143.9,90.3 155.8,91.6"/>
  <path d="M285.9,236.1 Q290.5,246.3 299.2,253.3"/>
  <path d="M473.4,184.3 Q459.0,199.1 452.8,218.9"/>
  <path d="M513.2,250.5 Q486.8,227.5 452.8,218.9"/>
  <path d="M372.1,173.3 Q392.2,173.8 410.3,165.1"/>
  <path d="M291.7,150.1 Q266.3,123.5 231.7,111.4"/>
  <path d="M348.7,327.6 Q332.9,284.5 299.2,253.3"/>
  </g>
  <!-- Decorative filler dots (neutral, small) -->
  <g id="fillers" fill="#5F7E9A" opacity="0.55">
  <circle cx="181.2" cy="103.8" r="3.3"/>
  <circle cx="258.6" cy="208.7" r="3.3"/>
  <circle cx="429.0" cy="227.5" r="3.3"/>
  <circle cx="345.4" cy="61.2" r="3.3"/>
  <circle cx="535.2" cy="194.5" r="3.3"/>
  <circle cx="115.3" cy="222.6" r="3.3"/>
  <circle cx="121.9" cy="215.5" r="3.3"/>
  <circle cx="133.8" cy="83.8" r="3.3"/>
  <circle cx="285.9" cy="236.1" r="3.3"/>
  <circle cx="396.2" cy="223.0" r="3.3"/>
  <circle cx="155.8" cy="91.6" r="3.3"/>
  <circle cx="473.4" cy="184.3" r="3.3"/>
  <circle cx="513.2" cy="250.5" r="3.3"/>
  <circle cx="173.9" cy="263.8" r="3.3"/>
  <circle cx="560.5" cy="123.1" r="3.3"/>
  <circle cx="372.1" cy="173.3" r="3.3"/>
  </g>
  <!-- Neuron positions (replace with real lane data) -->
  <g id="neurons">
  <circle cx="291.7" cy="150.1" r="14" fill="#E8927C" opacity="0.15"/>
  <circle cx="291.7" cy="150.1" r="6" fill="#E8927C"/>
  <circle cx="291.7" cy="150.1" r="2.5" fill="white" opacity="0.85"/>
  <text x="291.7" y="170.1" text-anchor="middle" font-size="10" fill="#5F7E9A" font-family="sans-serif">Animals</text>
  <circle cx="348.7" cy="327.6" r="14" fill="#9BB8D3" opacity="0.15"/>
  <circle cx="348.7" cy="327.6" r="6" fill="#9BB8D3"/>
  <circle cx="348.7" cy="327.6" r="2.5" fill="white" opacity="0.85"/>
  <text x="348.7" y="347.6" text-anchor="middle" font-size="10" fill="#5F7E9A" font-family="sans-serif">Music</text>
  <circle cx="159.2" cy="162.0" r="14" fill="#D4A76A" opacity="0.15"/>
  <circle cx="159.2" cy="162.0" r="6" fill="#D4A76A"/>
  <circle cx="159.2" cy="162.0" r="2.5" fill="white" opacity="0.85"/>
  <text x="159.2" y="182.0" text-anchor="middle" font-size="10" fill="#5F7E9A" font-family="sans-serif">History</text>
  <circle cx="299.2" cy="253.3" r="14" fill="#7FB069" opacity="0.15"/>
  <circle cx="299.2" cy="253.3" r="6" fill="#7FB069"/>
  <circle cx="299.2" cy="253.3" r="2.5" fill="white" opacity="0.85"/>
  <text x="299.2" y="273.3" text-anchor="middle" font-size="10" fill="#5F7E9A" font-family="sans-serif">Food</text>
  <circle cx="231.7" cy="111.4" r="14" fill="#C49BD4" opacity="0.15"/>
  <circle cx="231.7" cy="111.4" r="6" fill="#C49BD4"/>
  <circle cx="231.7" cy="111.4" r="2.5" fill="white" opacity="0.85"/>
  <text x="231.7" y="131.4" text-anchor="middle" font-size="10" fill="#5F7E9A" font-family="sans-serif">Art</text>
  <circle cx="410.3" cy="165.1" r="14" fill="#6BA3A0" opacity="0.15"/>
  <circle cx="410.3" cy="165.1" r="6" fill="#6BA3A0"/>
  <circle cx="410.3" cy="165.1" r="2.5" fill="white" opacity="0.85"/>
  <text x="410.3" y="185.1" text-anchor="middle" font-size="10" fill="#5F7E9A" font-family="sans-serif">Science</text>
  <circle cx="444.9" cy="273.6" r="14" fill="#D49B6A" opacity="0.15"/>
  <circle cx="444.9" cy="273.6" r="6" fill="#D49B6A"/>
  <circle cx="444.9" cy="273.6" r="2.5" fill="white" opacity="0.85"/>
  <text x="444.9" y="293.6" text-anchor="middle" font-size="10" fill="#5F7E9A" font-family="sans-serif">Sports</text>
  <circle cx="452.8" cy="218.9" r="14" fill="#8FA0C8" opacity="0.15"/>
  <circle cx="452.8" cy="218.9" r="6" fill="#8FA0C8"/>
  <circle cx="452.8" cy="218.9" r="2.5" fill="white" opacity="0.85"/>
  <text x="452.8" y="238.9" text-anchor="middle" font-size="10" fill="#5F7E9A" font-family="sans-serif">Books</text>
  </g>
</svg>
